<svg width="1199" height="139" viewBox="0 0 1199 139" fill="none" xmlns="http://www.w3.org/2000/svg">
<path d="M19.3319 134.782V113.501H54.7094C61.0245 113.501 65.9219 111.584 69.4017 107.749C73.0103 103.915 74.8146 99.3772 74.8146 94.1367C74.8146 90.5578 74.0413 87.2985 72.4948 84.3588C70.9482 81.419 68.6284 79.1183 65.5353 77.4567C62.5711 75.6673 58.9624 74.7725 54.7094 74.7725H19.3319V53.6829H51.8096C57.2226 53.6829 61.54 52.3408 64.762 49.6566C68.1129 46.9725 69.7883 42.9463 69.7883 37.578C69.7883 32.0819 68.1129 27.9918 64.762 25.3076C61.54 22.6235 57.2226 21.2814 51.8096 21.2814H19.3319V4.40396e-05H54.9027C63.9243 4.40396e-05 71.4638 1.66165 77.5211 4.98487C83.7073 8.18028 88.347 12.4621 91.4401 17.8304C94.5332 23.0709 96.0798 28.8226 96.0798 35.0856C96.0798 42.7546 93.6955 49.401 88.9269 55.0249C84.2873 60.521 77.4567 64.6112 68.4351 67.2953L69.595 58.8594C79.6476 61.6714 87.3804 66.3367 92.7933 72.8553C98.3352 79.2461 101.106 86.979 101.106 96.054C101.106 103.212 99.3018 109.73 95.6931 115.61C92.2134 121.362 87.0582 126.027 80.2276 129.606C73.5258 133.057 65.342 134.782 55.676 134.782H19.3319ZM0 134.782V4.40396e-05H26.0981V134.782H0Z" fill="#F2F2F2"/>
<path d="M122.154 134.782V4.40396e-05H148.445V134.782H122.154ZM141.485 134.782V111.584H209.459V134.782H141.485Z" fill="#F2F2F2"/>
<path d="M277.678 136.7C266.981 136.7 257.444 134.399 249.067 129.797C240.819 125.068 234.31 118.614 229.542 110.433C224.773 102.253 222.389 92.9864 222.389 82.6332V4.40396e-05H248.68V83.4001C248.68 89.4075 249.905 94.5841 252.353 98.9298C254.931 103.276 258.411 106.663 262.793 109.091C267.303 111.392 272.265 112.542 277.678 112.542C283.22 112.542 288.117 111.392 292.37 109.091C296.624 106.663 299.974 103.276 302.423 98.9298C305.001 94.5841 306.289 89.4714 306.289 83.5919V4.40396e-05H332.774V82.825C332.774 93.1781 330.39 102.445 325.621 110.625C320.853 118.677 314.344 125.068 306.096 129.797C297.977 134.399 288.504 136.7 277.678 136.7Z" fill="#F2F2F2"/>
<path d="M600.799 139C590.875 139 581.596 137.211 572.961 133.632C564.455 130.053 556.98 125.132 550.536 118.869C544.221 112.478 539.259 105.065 535.65 96.629C532.042 88.0653 530.237 78.9264 530.237 69.2124C530.237 59.4984 531.977 50.4874 535.457 42.1793C539.066 33.7435 544.027 26.394 550.343 20.131C556.787 13.7402 564.262 8.81932 572.768 5.36828C581.274 1.78943 590.489 0 600.412 0C610.465 0 619.744 1.78943 628.25 5.36828C636.756 8.81932 644.167 13.7402 650.482 20.131C656.926 26.394 661.952 33.7435 665.561 42.1793C669.17 50.6152 670.974 59.6901 670.974 69.4041C670.974 79.1182 669.17 88.1931 665.561 96.629C661.952 105.065 656.926 112.478 650.482 118.869C644.167 125.132 636.756 130.053 628.25 133.632C619.873 137.211 610.723 139 600.799 139ZM600.412 114.651C609.176 114.651 616.78 112.734 623.224 108.899C629.668 105.065 634.694 99.7605 638.303 92.9862C642.04 86.212 643.909 78.2874 643.909 69.2124C643.909 62.566 642.878 56.4947 640.816 50.9986C638.754 45.5025 635.79 40.7733 631.923 36.811C628.057 32.7209 623.482 29.5894 618.198 27.4165C612.914 25.2437 606.985 24.1572 600.412 24.1572C591.906 24.1572 584.367 26.0745 577.794 29.909C571.35 33.6156 566.259 38.8561 562.522 45.6304C558.913 52.4046 557.109 60.2653 557.109 69.2124C557.109 75.9867 558.14 82.1857 560.202 87.8097C562.393 93.4336 565.357 98.2267 569.095 102.189C572.961 106.151 577.536 109.219 582.82 111.392C588.233 113.565 594.097 114.651 600.412 114.651Z" fill="#F2F2F2"/>
<path d="M754.266 139C744.342 139 735.127 137.274 726.621 133.823C718.115 130.244 710.64 125.323 704.196 119.06C697.881 112.669 692.984 105.256 689.504 96.8202C686.153 88.3843 684.478 79.3093 684.478 69.5953C684.478 59.8812 686.153 50.8063 689.504 42.3704C692.984 33.9345 697.881 26.5851 704.196 20.3221C710.64 14.0591 718.051 9.13813 726.428 5.55928C734.934 1.98042 744.213 0.190991 754.266 0.190991C765.092 0.190991 774.629 1.98042 782.877 5.55928C791.126 9.01032 798.407 13.8034 804.722 19.9386L786.937 37.5773C783.2 33.4871 778.624 30.2917 773.211 27.9911C767.798 25.6904 761.483 24.54 754.266 24.54C747.951 24.54 742.151 25.6264 736.867 27.7993C731.712 29.8444 727.201 32.912 723.335 37.0021C719.468 40.9644 716.504 45.7575 714.442 51.3814C712.38 56.8775 711.349 62.9488 711.349 69.5953C711.349 76.3695 712.38 82.5047 714.442 88.0008C716.504 93.4969 719.468 98.29 723.335 102.38C727.201 106.342 731.712 109.41 736.867 111.583C742.151 113.756 747.951 114.842 754.266 114.842C761.87 114.842 768.378 113.692 773.791 111.391C779.333 109.091 783.973 105.831 787.71 101.613L805.496 119.252C799.181 125.515 791.834 130.372 783.457 133.823C775.08 137.274 765.35 139 754.266 139Z" fill="#F2F2F2"/>
<path d="M939.411 137.082L993.757 3.19311C993.977 2.65317 994.501 2.29996 995.084 2.29996H1014.61C1015.2 2.29996 1015.72 2.65394 1015.94 3.19474L1070.09 137.082H1042.72C1042.32 137.082 1041.97 136.838 1041.83 136.468L999.92 26.4573H1009.59L967.098 136.472C966.956 136.84 966.602 137.082 966.208 137.082H939.411Z" fill="#F2F2F2"/>
<path d="M1086.1 137.082V2.29996H1104.47L1112.39 28.3745V137.082H1086.1ZM1180.05 137.082L1099.44 33.551L1104.47 2.29996L1185.08 105.831L1180.05 137.082ZM1180.05 137.082L1172.52 111.775V2.29996H1199V137.082H1180.05Z" fill="#F2F2F2"/>
<path d="M823.585 137.082V2.29992H849.876V137.082H823.585ZM842.917 137.082V114.075L923.114 113.884V134.587C923.114 135.86 922.075 136.893 920.791 136.896L842.917 137.082ZM842.917 79.3732V57.1331H909.727V79.3732H842.917ZM842.917 25.3069V2.29992H917.152V25.3069H842.917Z" fill="#F2F2F2"/>
<path d="M353.88 134.782V0H380.171V134.782H353.88ZM373.212 134.782V111.775L453.408 111.584V132.287C453.408 133.56 452.369 134.593 451.086 134.596L373.212 134.782ZM373.212 77.0732V54.8332H440.021V77.0732H373.212ZM373.212 23.0069V0H447.446V23.0069H373.212Z" fill="#F2F2F2"/>
</svg>
